HIERARCHY
ROOT hip
{
  OFFSET 0 0 0
  CHANNELS 6 Xposition Yposition Zposition Zrotation Yrotation Xrotation
  JOINT abdomen
  {
    OFFSET 0 20.6881 -0.73152
    CHANNELS 3 Zrotation Xrotation Yrotation
    JOINT chest
    {
      OFFSET 0 11.7043 -0.48768
      CHANNELS 3 Zrotation Xrotation Yrotation
      JOINT neck
      {
        OFFSET 0 22.1894 -2.19456
        CHANNELS 3 Zrotation Xrotation Yrotation
        JOINT head
        {
          OFFSET -0.24384 7.07133 1.2192
          CHANNELS 3 Zrotation Xrotation Yrotation
          JOINT leftEye
          {
            OFFSET 4.14528 8.04674 8.04672
            CHANNELS 3 Zrotation Xrotation Yrotation
            End Site
            {
              OFFSET 1 0 0
            }
          }
          JOINT rightEye
          {
            OFFSET -3.6576 8.04674 8.04672
            CHANNELS 3 Zrotation Xrotation Yrotation
            End Site
            {
              OFFSET 1 0 0
            }
          }
        }
      }
      JOINT rCollar
      {
        OFFSET -2.68224 19.2634 -4.8768
        CHANNELS 3 Zrotation Xrotation Yrotation
        JOINT rShldr
        {
          OFFSET -8.77824 -1.95073 1.46304
          CHANNELS 3 Zrotation Xrotation Yrotation
          JOINT rForeArm
          {
            OFFSET -28.1742 -1.7115 0.48768
            CHANNELS 3 Zrotation Xrotation Yrotation
            JOINT rHand
            {
              OFFSET -22.5879 0.773209 7.07136
              CHANNELS 3 Zrotation Xrotation Yrotation
              JOINT rThumb1
              {
                OFFSET -1.2192 -0.487915 3.41376
                CHANNELS 3 Zrotation Xrotation Yrotation
                JOINT rThumb2
                {
                  OFFSET -3.37035 -0.52449 3.41376
                  CHANNELS 3 Zrotation Xrotation Yrotation
                  End Site
                  {
                    OFFSET -1.78271 -1.18214 1.43049
                  }
                }
              }
              JOINT rIndex1
              {
                OFFSET -7.75947 0.938293 5.60832
                CHANNELS 3 Zrotation Xrotation Yrotation
                JOINT rIndex2
                {
                  OFFSET -2.54057 -0.884171 1.56538
                  CHANNELS 3 Zrotation Xrotation Yrotation
                  End Site
                  {
                    OFFSET -1.62519 -0.234802 1.16502
                  }
                }
              }
              JOINT rMid1
              {
                OFFSET -8.24714 1.18213 3.41376
                CHANNELS 3 Zrotation Xrotation Yrotation
                JOINT rMid2
                {
                  OFFSET -3.10165 -0.590103 1.0647
                  CHANNELS 3 Zrotation Xrotation Yrotation
                  End Site
                  {
                    OFFSET -2.48547 -0.328903 0.83742
                  }
                }
              }
              JOINT rRing1
              {
                OFFSET -8.82822 0.546677 1.51678
                CHANNELS 3 Zrotation Xrotation Yrotation
                JOINT rRing2
                {
                  OFFSET -2.60934 -0.819778 -0.0198488
                  CHANNELS 3 Zrotation Xrotation Yrotation
                  End Site
                  {
                    OFFSET -2.33842 -0.294052 0.168128
                  }
                }
              }
              JOINT rPinky1
              {
                OFFSET -8.27202 -0.0477905 -0.4584
                CHANNELS 3 Zrotation Xrotation Yrotation
                JOINT rPinky2
                {
                  OFFSET -1.82734 -0.647385 -0.700984
                  CHANNELS 3 Zrotation Xrotation Yrotation
                  End Site
                  {
                    OFFSET -1.69225 -0.51767 -0.607171
                  }
                }
              }
            }
          }
        }
      }
      JOINT lCollar
      {
        OFFSET 2.68224 19.2634 -4.8768
        CHANNELS 3 Zrotation Xrotation Yrotation
        JOINT lShldr
        {
          OFFSET 8.77824 -1.95073 1.46304
          CHANNELS 3 Zrotation Xrotation Yrotation
          JOINT lForeArm
          {
            OFFSET 28.1742 -1.7115 0.48768
            CHANNELS 3 Zrotation Xrotation Yrotation
            JOINT lHand
            {
              OFFSET 22.5879 0.773209 7.07136
              CHANNELS 3 Zrotation Xrotation Yrotation
              JOINT lThumb1
              {
                OFFSET 1.2192 -0.487915 3.41376
                CHANNELS 3 Zrotation Xrotation Yrotation
                JOINT lThumb2
                {
                  OFFSET 3.37035 -0.52449 3.41376
                  CHANNELS 3 Zrotation Xrotation Yrotation
                  End Site
                  {
                    OFFSET 1.78271 -1.18214 1.43049
                  }
                }
              }
              JOINT lIndex1
              {
                OFFSET 7.75947 0.938293 5.60832
                CHANNELS 3 Zrotation Xrotation Yrotation
                JOINT lIndex2
                {
                  OFFSET 2.54057 -0.884171 1.56538
                  CHANNELS 3 Zrotation Xrotation Yrotation
                  End Site
                  {
                    OFFSET 1.62519 -0.234802 1.16502
                  }
                }
              }
              JOINT lMid1
              {
                OFFSET 8.24714 1.18213 3.41376
                CHANNELS 3 Zrotation Xrotation Yrotation
                JOINT lMid2
                {
                  OFFSET 3.10165 -0.590103 1.0647
                  CHANNELS 3 Zrotation Xrotation Yrotation
                  End Site
                  {
                    OFFSET 2.48547 -0.328903 0.83742
                  }
                }
              }
              JOINT lRing1
              {
                OFFSET 8.82822 0.546677 1.51678
                CHANNELS 3 Zrotation Xrotation Yrotation
                JOINT lRing2
                {
                  OFFSET 2.60934 -0.819778 -0.0198488
                  CHANNELS 3 Zrotation Xrotation Yrotation
                  End Site
                  {
                    OFFSET 2.33842 -0.294052 0.168128
                  }
                }
              }
              JOINT lPinky1
              {
                OFFSET 8.27202 -0.0477905 -0.4584
                CHANNELS 3 Zrotation Xrotation Yrotation
                JOINT lPinky2
                {
                  OFFSET 1.82734 -0.647385 -0.700984
                  CHANNELS 3 Zrotation Xrotation Yrotation
                  End Site
                  {
                    OFFSET 1.69225 -0.51767 -0.607171
                  }
                }
              }
            }
          }
        }
      }
    }
  }
  JOINT rButtock
  {
    OFFSET -8.77824 4.35084 1.2192
    CHANNELS 3 Zrotation Xrotation Yrotation
    JOINT rThigh
    {
      OFFSET 0 -1.70687 -2.19456
      CHANNELS 3 Zrotation Xrotation Yrotation
      JOINT rShin
      {
        OFFSET 0 -36.8199 0.73152
        CHANNELS 3 Zrotation Xrotation Yrotation
        JOINT rFoot
        {
          OFFSET 0.73152 -45.1104 -5.12064
          CHANNELS 3 Zrotation Xrotation Yrotation
          End Site
          {
            OFFSET -1.1221 -3.69964 12.103
          }
        }
      }
    }
  }
  JOINT lButtock
  {
    OFFSET 8.77824 4.35084 1.2192
    CHANNELS 3 Zrotation Xrotation Yrotation
    JOINT lThigh
    {
      OFFSET 0 -1.70687 -2.19456
      CHANNELS 3 Zrotation Xrotation Yrotation
      JOINT lShin
      {
        OFFSET 0 -36.8199 0.73152
        CHANNELS 3 Zrotation Xrotation Yrotation
        JOINT lFoot
        {
          OFFSET -0.73152 -45.1104 -5.12064
          CHANNELS 3 Zrotation Xrotation Yrotation
          End Site
          {
            OFFSET 1.1221 -3.69964 12.103
          }
        }
      }
    }
  }
}
MOTION
Frames:	7
Frame Time:	0.00833333
2.25379 83.0934 2.55335 -0.7802 5.8761 4.9646 3.55705 2.10196 -0.32627 3.70352 -7.80131 0.238833 -13.2809 13.4376 -7.16238 33.5684 20.8417 -19.8618 -0.0 0.0 0.0 -0.0 0.0 0.0 -1.09099e-13 2.42431e-13 8.81952e-15 20.8853 -38.8493 62.684 -22.6539 -50.9619 107.299 -0.108058 9.30412 1.31948 9.23214e-10 -6.05582e-10 2.78245e-10 1.59423e-09 -1.03697e-09 4.76793e-10 9.23215e-10 -6.05587e-10 2.7824e-10 7.73091 5.47488 0.417314 9.23212e-10 -6.05576e-10 2.78249e-10 2.90554 0.965183 0.102902 9.23221e-10 -6.05576e-10 2.78248e-10 10.2786 0.731801 0.0259123 9.23214e-10 -6.05576e-10 2.78256e-10 2.22167 -0.733487 -0.20892 -1.09175e-13 2.42429e-13 8.58967e-15 22.2327 -48.316 -45.7775 26.8542 -44.3949 -92.2329 0.52274 -20.1021 2.94841 1.24696e-09 -7.20144e-10 9.44578e-10 2.14117e-09 -1.24333e-09 1.65035e-09 1.24696e-09 -7.20142e-10 9.44588e-10 -7.73091 5.47488 -0.417314 1.24696e-09 -7.20145e-10 9.44574e-10 -2.90554 0.965183 -0.102902 1.24696e-09 -7.20143e-10 9.44578e-10 -10.2786 0.731801 -0.0259123 1.24697e-09 -7.20145e-10 9.44571e-10 -2.22167 -0.733487 0.20892 -2.03217e-16 0.0 -3.88251e-19 0.592846 -11.6671 6.8748 -0.0177646 22.1466 0.393238 -4.47621 -12.605 -14.5699 2.03217e-16 0.0 3.88251e-19 0.498078 -15.2697 -14.2259 0.141236 24.98 -0.437208 1.87132 -12.7611 4.59153
2.29163 83.0445 2.44326 -0.8471 5.9207 4.9168 3.70162 2.23337 -0.284738 3.87991 -7.73776 0.26191 -13.1389 13.6471 -7.02242 33.8857 20.8997 -19.7087 -0.0 0.0 0.0 -0.0 0.0 0.0 -1.22417e-13 2.75577e-13 8.94531e-16 21.638 -38.1784 62.9834 -22.5762 -51.0437 107.518 -0.119956 9.82824 1.39512 1.13544e-09 -7.69691e-10 5.33862e-10 1.96202e-09 -1.3183e-09 9.18434e-10 1.13544e-09 -7.69701e-10 5.33862e-10 7.73091 5.47488 0.417314 1.13544e-09 -7.69684e-10 5.33866e-10 2.90554 0.965183 0.102902 1.13545e-09 -7.69684e-10 5.33865e-10 10.2786 0.731801 0.0259123 1.13544e-09 -7.69684e-10 5.33872e-10 2.22167 -0.733487 -0.20892 -1.22494e-13 2.75578e-13 6.4605e-16 22.6371 -48.1567 -45.7507 26.8812 -44.3263 -92.0952 0.524205 -20.1295 2.95276 1.47628e-09 -8.62792e-10 1.02136e-09 2.53596e-09 -1.48935e-09 1.78654e-09 1.47628e-09 -8.62791e-10 1.02137e-09 -7.73091 5.47488 -0.417314 1.47628e-09 -8.62794e-10 1.02136e-09 -2.90554 0.965183 -0.102902 1.47627e-09 -8.62792e-10 1.02136e-09 -10.2786 0.731801 -0.0259123 1.47629e-09 -8.62794e-10 1.02136e-09 -2.22167 -0.733487 0.20892 -2.03217e-16 0.0 -3.88251e-19 0.559991 -11.8098 6.78838 -0.0190325 22.3393 0.397462 -4.48291 -12.667 -14.5304 2.03217e-16 0.0 3.88251e-19 0.445356 -15.4513 -14.2088 0.143373 25.2427 -0.441385 1.86863 -12.7997 4.56911
2.34245 83.0216 2.3358 -0.8402 5.9264 4.9275 3.80225 2.36852 -0.27375 4.11294 -7.67253 0.279445 -13.0308 13.8785 -6.90353 34.2315 20.9511 -19.6079 -0.0 0.0 0.0 -0.0 0.0 0.0 -1.30261e-13 2.44172e-13 -1.56931e-14 22.3336 -37.4741 63.284 -22.4944 -51.1285 107.747 -0.136681 10.5179 1.49501 9.77953e-10 -7.6351e-10 7.05541e-10 1.69046e-09 -1.30919e-09 1.21692e-09 9.77957e-10 -7.63519e-10 7.05541e-10 7.73091 5.47488 0.417314 9.77951e-10 -7.63504e-10 7.05542e-10 2.90554 0.965183 0.102902 9.7796e-10 -7.63504e-10 7.05543e-10 10.2786 0.731801 0.0259123 9.7795e-10 -7.63504e-10 7.05549e-10 2.22167 -0.733487 -0.20892 -1.303e-13 2.44176e-13 -1.59082e-14 23.0018 -47.9657 -45.7183 26.9067 -44.2607 -91.964 0.51965 -20.0454 2.93937 1.43664e-09 -7.84575e-10 9.81695e-10 2.46805e-09 -1.35405e-09 1.71752e-09 1.43664e-09 -7.84575e-10 9.81702e-10 -7.73091 5.47488 -0.417314 1.43664e-09 -7.84578e-10 9.81696e-10 -2.90554 0.965183 -0.102902 1.43664e-09 -7.84576e-10 9.81695e-10 -10.2786 0.731801 -0.0259123 1.43665e-09 -7.84577e-10 9.81689e-10 -2.22167 -0.733487 0.20892 -2.03217e-16 0.0 -3.88251e-19 0.499268 -11.9568 6.68466 -0.0207596 22.5582 0.402485 -4.49167 -12.7485 -14.4775 2.03217e-16 0.0 3.88251e-19 0.373806 -15.6245 -14.1744 0.145381 25.4855 -0.444724 1.8464 -12.8199 4.48803
2.38252 82.9981 2.24829 -0.8621 5.9395 4.9059 3.87617 2.50661 -0.285284 4.38492 -7.60789 0.292752 -12.949 14.1115 -6.79759 34.6042 21.0124 -19.5423 -0.0 0.0 0.0 -0.0 0.0 0.0 -1.34491e-13 1.67605e-13 -4.22169e-14 22.9939 -36.7459 63.5908 -22.4106 -51.2144 107.98 -0.158795 11.3285 1.61318 5.91033e-10 -6.45001e-10 8.41247e-10 1.02216e-09 -1.10825e-09 1.45445e-09 5.91035e-10 -6.45009e-10 8.41245e-10 7.73091 5.47488 0.417314 5.9103e-10 -6.44998e-10 8.41244e-10 2.90554 0.965183 0.102902 5.91036e-10 -6.44999e-10 8.41249e-10 10.2786 0.731801 0.0259123 5.91027e-10 -6.44998e-10 8.41254e-10 2.22167 -0.733487 -0.20892 -1.34467e-13 1.67616e-13 -4.2366e-14 23.3356 -47.7542 -45.6821 26.9305 -44.1994 -91.841 0.510555 -19.8757 2.91238 1.23026e-09 -5.63282e-10 8.55526e-10 2.11346e-09 -9.71638e-10 1.49665e-09 1.23026e-09 -5.63283e-10 8.55528e-10 -7.73091 5.47488 -0.417314 1.23026e-09 -5.63285e-10 8.55526e-10 -2.90554 0.965183 -0.102902 1.23026e-09 -5.63284e-10 8.55525e-10 -10.2786 0.731801 -0.0259123 1.23027e-09 -5.63285e-10 8.55519e-10 -2.22167 -0.733487 0.20892 -2.03217e-16 0.0 -3.88251e-19 0.418722 -12.1084 6.5724 -0.0228333 22.7947 0.408059 -4.50262 -12.8405 -14.4212 2.03217e-16 0.0 3.88251e-19 0.287415 -15.7944 -14.1307 0.147309 25.7156 -0.447524 1.81153 -12.8279 4.36904
2.44364 82.9735 2.15059 -0.8247 5.9647 4.8418 3.96298 2.65591 -0.297158 4.65696 -7.54267 0.306029 -12.8562 14.3415 -6.69673 34.938 21.0352 -19.4628 -0.0 0.0 0.0 -0.0 0.0 0.0 -1.30198e-13 8.45764e-14 -6.58831e-14 23.6551 -36.0316 63.8999 -22.3231 -51.3031 108.222 -0.184412 12.169 1.73656 1.61418e-10 -4.89948e-10 9.17976e-10 2.79986e-10 -8.44709e-10 1.59008e-09 1.61419e-10 -4.89952e-10 9.17972e-10 7.73091 5.47488 0.417314 1.61416e-10 -4.89947e-10 9.17972e-10 2.90554 0.965183 0.102902 1.61419e-10 -4.89949e-10 9.17979e-10 10.2786 0.731801 0.0259123 1.61409e-10 -4.89947e-10 9.17982e-10 2.22167 -0.733487 -0.20892 -1.30114e-13 8.45936e-14 -6.59662e-14 23.6282 -47.561 -45.6753 26.9519 -44.1435 -91.7292 0.497654 -19.6347 2.87411 9.48223e-10 -3.11298e-10 6.76008e-10 1.62892e-09 -5.363e-10 1.18243e-09 9.48215e-10 -3.113e-10 6.76006e-10 -7.73091 5.47488 -0.417314 9.48222e-10 -3.11301e-10 6.76007e-10 -2.90554 0.965183 -0.102902 9.48216e-10 -3.11301e-10 6.76007e-10 -10.2786 0.731801 -0.0259123 9.48228e-10 -3.11301e-10 6.76001e-10 -2.22167 -0.733487 0.20892 -2.03217e-16 0.0 -3.88251e-19 0.338998 -12.2643 6.4557 -0.0251058 23.0378 0.41387 -4.51331 -12.9332 -14.3636 2.03217e-16 0.0 3.88251e-19 0.204099 -15.9693 -14.0821 0.149297 25.9474 -0.450216 1.77146 -12.8309 4.23517
2.51028 82.9407 2.04412 -0.7979 6.0159 4.7867 4.10204 2.82473 -0.287184 4.89013 -7.47567 0.323466 -12.7148 14.5641 -6.59305 35.1673 20.9709 -19.3206 -0.0 0.0 0.0 -0.0 0.0 0.0 -1.12472e-13 3.37845e-14 -7.38982e-14 24.354 -35.3682 64.2062 -22.2303 -51.3965 108.478 -0.210138 12.948 1.85167 -1.2415e-10 -3.74132e-10 9.12727e-10 -2.13228e-10 -6.47768e-10 1.58282e-09 -1.2415e-10 -3.74134e-10 9.12721e-10 7.73091 5.47488 0.417314 -1.24152e-10 -3.74134e-10 9.12724e-10 2.90554 0.965183 0.102902 -1.24151e-10 -3.74135e-10 9.12729e-10 10.2786 0.731801 0.0259123 -1.2416e-10 -3.74132e-10 9.12733e-10 2.22167 -0.733487 -0.20892 -1.1236e-13 3.38035e-14 -7.39479e-14 23.8695 -47.4244 -45.7299 26.9704 -44.0944 -91.6316 0.481699 -19.3369 2.82688 6.81588e-10 -1.4101e-10 4.76294e-10 1.1712e-09 -2.42225e-10 8.33386e-10 6.81581e-10 -1.41012e-10 4.76291e-10 -7.73091 5.47488 -0.417314 6.81588e-10 -1.41013e-10 4.76294e-10 -2.90554 0.965183 -0.102902 6.81582e-10 -1.41013e-10 4.76294e-10 -10.2786 0.731801 -0.0259123 6.81592e-10 -1.41013e-10 4.76288e-10 -2.22167 -0.733487 0.20892 -2.03217e-16 0.0 -3.88251e-19 0.280783 -12.4243 6.33866 -0.0274192 23.2771 0.419599 -4.52135 -13.0169 -14.3067 2.03217e-16 0.0 3.88251e-19 0.141742 -16.1574 -14.0336 0.151495 26.1952 -0.453241 1.73355 -12.8365 4.10944
2.54307 82.8958 1.93338 -0.9076 6.0934 4.7402 4.32037 3.01995 -0.243165 5.07205 -7.40608 0.347976 -12.4985 14.7842 -6.48332 35.2307 20.7768 -19.0823 -0.0 0.0 0.0 -0.0 0.0 0.0 -6.98759e-14 3.60407e-14 -5.49399e-14 25.1032 -34.7721 64.5037 -22.1295 -51.4966 108.753 -0.234908 13.6731 1.9593 -1.97789e-10 -3.24886e-10 7.80442e-10 -3.40039e-10 -5.64234e-10 1.35422e-09 -1.97788e-10 -3.24886e-10 7.80434e-10 7.73091 5.47488 0.417314 -1.97789e-10 -3.24892e-10 7.80447e-10 2.90554 0.965183 0.102902 -1.97789e-10 -3.24889e-10 7.80445e-10 10.2786 0.731801 0.0259123 -1.97799e-10 -3.24886e-10 7.80452e-10 2.22167 -0.733487 -0.20892 -6.97851e-14 3.60545e-14 -5.50047e-14 24.0339 -47.3635 -45.8775 26.9861 -44.0525 -91.5487 0.460961 -18.9441 2.76481 4.11554e-10 -9.52711e-11 2.2525e-10 7.08231e-10 -1.63587e-10 3.95259e-10 4.11546e-10 -9.52725e-11 2.25248e-10 -7.73091 5.47488 -0.417314 4.11554e-10 -9.52734e-11 2.25252e-10 -2.90554 0.965183 -0.102902 4.11547e-10 -9.52738e-11 2.25252e-10 -10.2786 0.731801 -0.0259123 4.11556e-10 -9.52737e-11 2.25245e-10 -2.22167 -0.733487 0.20892 -2.03217e-16 0.0 -3.88251e-19 0.262514 -12.5841 6.22241 -0.0296459 23.5046 0.42499 -4.52361 -13.0843 -14.2472 2.03217e-16 0.0 3.88251e-19 0.118741 -16.3616 -13.9828 0.154032 26.4704 -0.456859 1.69967 -12.8485 3.99824
